<svg width="490" height="40" viewBox="0 0 490 40" fill="none" xmlns="http://www.w3.org/2000/svg">
<path d="M47.355 21.36C47.2819 21.3214 47.2006 21.3009 47.118 21.3C47.033 21.3001 46.949 21.3177 46.8711 21.3516C46.7932 21.3854 46.7231 21.4349 46.665 21.497L45.403 22.758C45.3455 22.8144 45.3001 22.882 45.2696 22.9567C45.2392 23.0313 45.2243 23.1114 45.226 23.192V28.198C45.226 29.065 44.918 29.807 44.3 30.425C44.0117 30.7232 43.6654 30.9593 43.2824 31.1185C42.8993 31.2778 42.4878 31.3569 42.073 31.351H25.676C24.809 31.351 24.066 31.042 23.449 30.425C23.1507 30.1367 22.9146 29.7904 22.7554 29.4074C22.5961 29.0243 22.517 28.6127 22.523 28.198V11.8C22.523 10.933 22.831 10.19 23.449 9.57296C23.7372 9.27448 24.0835 9.03823 24.4665 8.87879C24.8495 8.71935 25.2612 8.64011 25.676 8.64596H42.073C42.363 8.64596 42.658 8.68596 42.96 8.76496C43.039 8.79096 43.098 8.80496 43.137 8.80496C43.222 8.80462 43.3061 8.78687 43.384 8.75282C43.4619 8.71877 43.532 8.66913 43.59 8.60696L44.556 7.64196C44.632 7.56977 44.6882 7.47925 44.7192 7.37909C44.7502 7.27893 44.755 7.17248 44.733 7.06996C44.7168 6.97066 44.6758 6.87706 44.6137 6.79786C44.5516 6.71866 44.4706 6.65644 44.378 6.61696C43.6551 6.28571 42.8682 6.11741 42.073 6.12396H25.676C24.112 6.12396 22.776 6.67896 21.666 7.78996C20.555 8.89996 20 10.238 20 11.8V28.197C20 29.761 20.555 31.097 21.665 32.207C22.775 33.318 24.113 33.873 25.676 33.873H42.073C43.636 33.873 44.973 33.318 46.083 32.208C47.194 31.098 47.75 29.761 47.75 28.198V21.93C47.75 21.654 47.617 21.464 47.355 21.358V21.36Z" fill="#FD2D55"/>
<path d="M51.785 9.71307L50.044 7.97307C49.9275 7.85152 49.7874 7.75509 49.6323 7.68974C49.4772 7.62438 49.3103 7.59149 49.142 7.59307C48.794 7.59307 48.492 7.71907 48.24 7.97307L33.938 22.2731L29.778 18.1131C29.6615 17.9913 29.5212 17.8948 29.3659 17.8295C29.2106 17.7641 29.0435 17.7313 28.875 17.7331C28.7066 17.7313 28.5397 17.7641 28.3846 17.8295C28.2294 17.8949 28.0893 17.9914 27.973 18.1131L26.233 19.8531C25.98 20.1061 25.853 20.4071 25.853 20.7551C25.853 21.1031 25.98 21.4041 26.233 21.6571L33.037 28.4611C33.29 28.7141 33.591 28.8411 33.939 28.8411C34.287 28.8411 34.587 28.7141 34.841 28.4611L51.784 11.5171C52.037 11.2641 52.164 10.9631 52.164 10.6151C52.164 10.2671 52.039 9.96607 51.785 9.71307ZM74.209 20.8401L73.929 23.0001H66.229L66.509 20.8401H69.039L69.959 13.2601C69.979 13.0871 70.002 12.9131 70.029 12.7401L70.129 12.2001L68.529 13.5901C68.3951 13.6883 68.2416 13.7565 68.079 13.7901C67.939 13.8171 67.809 13.8201 67.689 13.8001C67.5817 13.776 67.4799 13.7319 67.389 13.6701C67.313 13.6209 67.2482 13.5561 67.199 13.4801L66.419 12.2301L71.089 8.43007H73.559L72.039 20.8401H74.209ZM88.13 14.1301C88.13 15.6571 87.97 16.9871 87.65 18.1201C87.337 19.2471 86.907 20.1831 86.36 20.9301C85.813 21.6771 85.173 22.2371 84.44 22.6101C83.7109 22.9758 82.9057 23.1642 82.09 23.1601C81.47 23.1601 80.903 23.0401 80.39 22.8001C79.8674 22.5457 79.4144 22.1682 79.07 21.7001C78.703 21.2131 78.417 20.6071 78.21 19.8801C78.01 19.1471 77.91 18.2931 77.91 17.3201C77.91 15.8001 78.067 14.4731 78.38 13.3401C78.693 12.2071 79.12 11.2671 79.66 10.5201C80.2 9.76707 80.833 9.20707 81.56 8.84007C82.2906 8.46737 83.0999 8.27533 83.92 8.28007C84.54 8.28007 85.107 8.40307 85.62 8.65007C86.14 8.89007 86.583 9.25307 86.95 9.74007C87.323 10.2271 87.613 10.8371 87.82 11.5701C88.027 12.2971 88.13 13.1501 88.13 14.1301ZM85.07 13.9701C85.07 13.3301 85.027 12.8001 84.94 12.3801C84.86 11.9531 84.753 11.6171 84.62 11.3701C84.487 11.1171 84.33 10.9401 84.15 10.8401C83.9887 10.7369 83.8015 10.6815 83.61 10.6801C83.29 10.6801 82.97 10.7871 82.65 11.0001C82.337 11.2131 82.053 11.5801 81.8 12.1001C81.553 12.6201 81.353 13.3201 81.2 14.2001C81.047 15.0731 80.97 16.1731 80.97 17.5001C80.97 18.1331 81.01 18.6601 81.09 19.0801C81.17 19.5001 81.273 19.8371 81.4 20.0901C81.533 20.3371 81.683 20.5101 81.85 20.6101C82.023 20.7101 82.203 20.7601 82.39 20.7601C82.603 20.7601 82.817 20.7171 83.03 20.6301C83.243 20.5371 83.45 20.3871 83.65 20.1801C83.85 19.9731 84.037 19.7001 84.21 19.3601C84.383 19.0201 84.533 18.6001 84.66 18.1001C84.787 17.5931 84.887 17.0001 84.96 16.3201C85.033 15.6401 85.07 14.8571 85.07 13.9701ZM100.732 14.1301C100.732 15.6571 100.572 16.9871 100.252 18.1201C99.938 19.2471 99.508 20.1831 98.962 20.9301C98.415 21.6771 97.775 22.2371 97.042 22.6101C96.3129 22.9758 95.5077 23.1642 94.692 23.1601C94.072 23.1601 93.505 23.0401 92.992 22.8001C92.4694 22.5458 92.0164 22.1683 91.672 21.7001C91.305 21.2131 91.018 20.6071 90.812 19.8801C90.612 19.1471 90.512 18.2931 90.512 17.3201C90.512 15.8001 90.668 14.4731 90.982 13.3401C91.295 12.2071 91.722 11.2671 92.262 10.5201C92.802 9.76707 93.435 9.20707 94.162 8.84007C94.8926 8.46737 95.7019 8.27533 96.522 8.28007C97.142 8.28007 97.708 8.40307 98.222 8.65007C98.742 8.89007 99.185 9.25307 99.552 9.74007C99.925 10.2271 100.215 10.8371 100.422 11.5701C100.628 12.2971 100.732 13.1501 100.732 14.1301ZM97.672 13.9701C97.672 13.3301 97.628 12.8001 97.542 12.3801C97.462 11.9531 97.355 11.6171 97.222 11.3701C97.088 11.1171 96.932 10.9401 96.752 10.8401C96.5907 10.7369 96.4035 10.6815 96.212 10.6801C95.892 10.6801 95.572 10.7871 95.252 11.0001C94.938 11.2131 94.655 11.5801 94.402 12.1001C94.155 12.6201 93.955 13.3201 93.802 14.2001C93.648 15.0731 93.572 16.1731 93.572 17.5001C93.572 18.1331 93.612 18.6601 93.692 19.0801C93.772 19.5001 93.875 19.8371 94.002 20.0901C94.135 20.3371 94.285 20.5101 94.452 20.6101C94.625 20.7101 94.805 20.7601 94.992 20.7601C95.205 20.7601 95.418 20.7171 95.632 20.6301C95.845 20.5371 96.052 20.3871 96.252 20.1801C96.452 19.9731 96.638 19.7001 96.812 19.3601C96.985 19.0201 97.135 18.6001 97.262 18.1001C97.388 17.5931 97.488 17.0001 97.562 16.3201C97.635 15.6401 97.672 14.8571 97.672 13.9701ZM110.073 11.4501C110.081 12.0302 109.969 12.6056 109.743 13.1401C109.545 13.6237 109.257 14.065 108.893 14.4401C108.547 14.8001 108.15 15.0801 107.703 15.2801C107.271 15.4702 106.805 15.5689 106.333 15.5701C105.907 15.5701 105.52 15.4971 105.173 15.3501C104.834 15.2021 104.531 14.984 104.283 14.7101C104.03 14.4245 103.836 14.0913 103.713 13.7301C103.58 13.3501 103.513 12.9301 103.513 12.4701C103.513 11.8501 103.61 11.2871 103.803 10.7801C103.997 10.2671 104.26 9.82707 104.593 9.46007C104.922 9.0968 105.324 8.80714 105.773 8.61007C106.227 8.41007 106.713 8.31007 107.233 8.31007C107.66 8.31007 108.047 8.38707 108.393 8.54007C108.747 8.68707 109.047 8.90007 109.293 9.18007C109.547 9.45307 109.74 9.78307 109.873 10.1701C110.007 10.5571 110.073 10.9831 110.073 11.4501ZM107.773 11.4701C107.773 10.9901 107.7 10.6531 107.553 10.4601C107.493 10.3663 107.41 10.2895 107.312 10.237C107.214 10.1845 107.104 10.158 106.993 10.1601C106.814 10.1584 106.639 10.2072 106.487 10.301C106.334 10.3948 106.212 10.5296 106.133 10.6901C106.033 10.8701 105.953 11.1071 105.893 11.4001C105.84 11.6931 105.813 12.0501 105.813 12.4701C105.813 12.9301 105.88 13.2501 106.013 13.4301C106.153 13.6101 106.34 13.7001 106.573 13.7001C106.747 13.7001 106.907 13.6631 107.053 13.5901C107.212 13.5053 107.344 13.3769 107.433 13.2201C107.555 13.006 107.64 12.7726 107.683 12.5301C107.743 12.2431 107.773 11.8901 107.773 11.4701ZM114.573 8.89007C114.693 8.77815 114.824 8.67771 114.963 8.59007C115.117 8.49707 115.32 8.45007 115.573 8.45007H117.753L105.853 22.5801C105.734 22.698 105.599 22.7989 105.453 22.8801C105.307 22.9601 105.127 23.0001 104.913 23.0001H102.693L114.573 8.89007ZM116.893 19.0601C116.901 19.6402 116.789 20.2156 116.563 20.7501C116.365 21.2337 116.077 21.675 115.713 22.0501C115.367 22.4101 114.97 22.6901 114.523 22.8901C114.091 23.0802 113.625 23.1789 113.153 23.1801C112.727 23.1801 112.34 23.1071 111.993 22.9601C111.654 22.8121 111.351 22.594 111.103 22.3201C110.85 22.0345 110.656 21.7013 110.533 21.3401C110.4 20.9601 110.333 20.5431 110.333 20.0901C110.333 19.4631 110.43 18.8931 110.623 18.3801C110.817 17.8671 111.08 17.4271 111.413 17.0601C111.742 16.6968 112.144 16.4071 112.593 16.2101C113.047 16.0101 113.533 15.9101 114.053 15.9101C114.48 15.9101 114.867 15.9871 115.213 16.1401C115.567 16.2931 115.867 16.5071 116.113 16.7801C116.367 17.0531 116.56 17.3871 116.693 17.7801C116.827 18.1671 116.893 18.5931 116.893 19.0601ZM114.593 19.0801C114.593 18.5931 114.52 18.2571 114.373 18.0701C114.31 17.9809 114.226 17.9088 114.128 17.8599C114.03 17.8111 113.922 17.7871 113.813 17.7901C113.633 17.7901 113.47 17.8301 113.323 17.9101C113.163 18.0043 113.035 18.1434 112.953 18.3101C112.853 18.4901 112.773 18.7271 112.713 19.0201C112.66 19.3131 112.633 19.6701 112.633 20.0901C112.633 20.5431 112.7 20.8631 112.833 21.0501C112.973 21.2301 113.16 21.3201 113.393 21.3201C113.567 21.3201 113.727 21.2831 113.873 21.2101C114.032 21.1253 114.164 20.9969 114.253 20.8401C114.36 20.6601 114.443 20.4271 114.503 20.1401C114.563 19.8531 114.593 19.5001 114.593 19.0801ZM67.916 31.4401L67.724 33.0001H62.828L63.908 24.2581H65.864L64.976 31.4401H67.916ZM71.267 33.0001H69.3L70.368 24.2581H72.336L71.267 33.0001ZM77.277 31.4881C77.497 31.4881 77.687 31.4721 77.847 31.4401C77.9912 31.4107 78.1319 31.3665 78.267 31.3081C78.3712 31.2631 78.4702 31.2068 78.562 31.1401L78.778 30.9661C78.842 30.9141 78.902 30.8721 78.958 30.8401C79.0114 30.8048 79.074 30.7861 79.138 30.7861C79.1923 30.7837 79.2462 30.7962 79.294 30.8221C79.338 30.8421 79.37 30.8661 79.39 30.8941L80.074 31.7161C79.694 32.1681 79.242 32.5121 78.718 32.7481C78.198 32.9801 77.606 33.0961 76.942 33.0961C76.39 33.0961 75.9 33.0001 75.472 32.8081C75.06 32.621 74.6935 32.3467 74.398 32.0041C74.0983 31.6502 73.8719 31.2402 73.732 30.7981C73.5808 30.3085 73.5059 29.7985 73.51 29.2861C73.51 28.7861 73.566 28.3121 73.678 27.8641C73.79 27.4161 73.948 27.0021 74.152 26.6221C74.5407 25.8805 75.1234 25.2584 75.838 24.8221C76.1879 24.6093 76.5654 24.4457 76.96 24.3361C77.6591 24.1362 78.3963 24.1094 79.108 24.2581C79.38 24.3181 79.624 24.4041 79.84 24.5161C80.06 24.6241 80.256 24.7541 80.428 24.9061C80.6 25.0581 80.75 25.2261 80.878 25.4101L80.194 26.2021C80.1448 26.2592 80.0883 26.3096 80.026 26.3521C79.9507 26.3992 79.8628 26.4222 79.774 26.4181C79.7088 26.4188 79.6447 26.4023 79.588 26.3701C79.5279 26.3354 79.4698 26.2973 79.414 26.2561C79.358 26.2081 79.294 26.1561 79.222 26.1001C79.0358 25.9702 78.8258 25.8785 78.604 25.8301C78.4443 25.7956 78.2813 25.7795 78.118 25.7821C77.75 25.7821 77.406 25.8601 77.086 26.0161C76.77 26.1721 76.494 26.3961 76.258 26.6881C76.026 26.9761 75.844 27.3281 75.712 27.7441C75.5746 28.193 75.5078 28.6606 75.514 29.1301C75.514 29.5021 75.558 29.8341 75.646 30.1261C75.7257 30.3938 75.8516 30.6456 76.018 30.8701C76.174 31.0701 76.36 31.2241 76.576 31.3321C76.792 31.4361 77.025 31.4881 77.277 31.4881ZM84.33 25.7641L84.072 27.8761H86.544L86.352 29.3281H83.892L83.622 31.4941H86.88L86.688 33.0001H81.468L82.548 24.2581H87.756L87.564 25.7641H84.33ZM96.662 24.2581L95.582 33.0001H94.562C94.4341 33.005 94.3068 32.9803 94.19 32.9281C94.085 32.8639 93.995 32.778 93.926 32.6761L90.872 27.2761C90.86 27.5081 90.842 27.7161 90.818 27.9001L90.218 33.0001H88.49L89.57 24.2581H90.602C90.686 24.2581 90.756 24.2621 90.812 24.2701C90.872 24.2741 90.924 24.2881 90.968 24.3121C91.012 24.3321 91.052 24.3621 91.088 24.4021C91.124 24.4421 91.162 24.4941 91.202 24.5581L94.268 29.9581L94.304 29.5561C94.316 29.4281 94.33 29.3081 94.346 29.1961L94.934 24.2581H96.662ZM103.155 26.0101C103.095 26.0898 103.025 26.1605 102.945 26.2201C102.871 26.2657 102.786 26.2886 102.699 26.2861C102.6 26.2839 102.504 26.2526 102.423 26.1961C102.331 26.1361 102.227 26.0701 102.111 25.9981C101.987 25.9202 101.857 25.8539 101.721 25.8001C101.554 25.7367 101.377 25.7062 101.199 25.7101C101.015 25.7101 100.853 25.7361 100.713 25.7881C100.588 25.833 100.473 25.9045 100.378 25.9977C100.283 26.0909 100.209 26.2036 100.161 26.3281C100.117 26.4521 100.095 26.5881 100.095 26.7361C100.095 26.8961 100.139 27.0301 100.227 27.1381C100.319 27.2461 100.439 27.3421 100.587 27.4261C100.739 27.5061 100.909 27.5801 101.097 27.6481C101.285 27.7161 101.477 27.7901 101.673 27.8701C101.873 27.9501 102.067 28.0421 102.255 28.1461C102.447 28.2501 102.617 28.3801 102.765 28.5361C102.917 28.6921 103.037 28.8801 103.125 29.1001C103.217 29.3201 103.263 29.5841 103.263 29.8921C103.263 30.3321 103.187 30.7461 103.035 31.1341C102.883 31.5221 102.665 31.8621 102.381 32.1541C102.097 32.4421 101.751 32.6721 101.343 32.8441C100.939 33.0121 100.483 33.0961 99.975 33.0961C99.724 33.0961 99.47 33.0681 99.214 33.0121C98.963 32.9566 98.7177 32.8782 98.481 32.7781C98.2543 32.6768 98.0376 32.5542 97.834 32.4121C97.6431 32.2805 97.4715 32.123 97.324 31.9441L98.019 31.0321C98.0756 30.9635 98.1449 30.9065 98.223 30.8641C98.3003 30.8218 98.3869 30.7991 98.475 30.7981C98.588 30.7981 98.695 30.8381 98.8 30.9181C98.908 30.9941 99.025 31.0801 99.153 31.1761C99.281 31.2681 99.429 31.3541 99.597 31.4341C99.769 31.5101 99.98 31.5481 100.227 31.5481C100.591 31.5481 100.871 31.4501 101.067 31.2541C101.267 31.0541 101.367 30.7601 101.367 30.3721C101.373 30.2126 101.325 30.0558 101.229 29.9281C101.133 29.8058 101.013 29.7055 100.875 29.6341C100.731 29.5541 100.565 29.4841 100.377 29.4241C100.189 29.3601 99.997 29.2921 99.802 29.2201C99.6048 29.1477 99.4121 29.0636 99.225 28.9681C99.0376 28.8682 98.8677 28.7385 98.722 28.5841C98.5708 28.4123 98.451 28.2153 98.368 28.0021C98.2732 27.7283 98.2285 27.4397 98.236 27.1501C98.236 26.7621 98.308 26.3901 98.451 26.0341C98.5994 25.6704 98.8192 25.3402 99.0975 25.0629C99.3757 24.7857 99.7068 24.5671 100.071 24.4201C100.486 24.2509 100.931 24.1672 101.379 24.1741C101.855 24.1733 102.325 24.2735 102.759 24.4681C102.963 24.5601 103.149 24.6701 103.317 24.7981C103.485 24.9221 103.627 25.0581 103.743 25.2061L103.155 26.0101ZM107.517 25.7641L107.259 27.8761H109.731L109.539 29.3281H107.079L106.809 31.4941H110.067L109.875 33.0001H104.655L105.735 24.2581H110.943L110.751 25.7641H107.517ZM119.609 28.0681C119.609 28.5441 119.555 28.9961 119.447 29.4241C119.339 29.8481 119.185 30.2441 118.985 30.6121C118.588 31.3341 118.004 31.9353 117.293 32.3521C116.931 32.5643 116.541 32.7258 116.135 32.8321C115.706 32.9457 115.264 33.0022 114.821 33.0001H111.677L112.757 24.2581H115.901C116.473 24.2581 116.987 24.3561 117.443 24.5521C117.903 24.7441 118.293 25.0101 118.613 25.3501C118.933 25.6901 119.179 26.0921 119.351 26.5561C119.523 27.0201 119.609 27.5241 119.609 28.0681ZM117.605 28.1161C117.605 27.7601 117.563 27.4381 117.479 27.1501C117.41 26.8795 117.285 26.6262 117.113 26.4061C116.955 26.2036 116.751 26.0413 116.519 25.9321C116.265 25.8162 115.988 25.7588 115.709 25.7641H114.533L113.837 31.4941H115.013C115.413 31.4941 115.773 31.4161 116.093 31.2601C116.413 31.1001 116.685 30.8741 116.909 30.5821C117.133 30.2901 117.305 29.9361 117.425 29.5201C117.545 29.1041 117.605 28.6361 117.605 28.1161ZM217.678 17.0141C217.531 17.2329 217.443 17.4867 217.425 17.75C217.406 18.0133 217.457 18.2768 217.573 18.5141C217.946 19.3841 218.208 20.2951 218.353 21.2291C218.739 23.6446 218.378 26.1204 217.318 28.3251C217.19 28.5671 216.997 28.7693 216.762 28.9095C216.526 29.0497 216.257 29.1225 215.983 29.1201H197.008C196.732 29.1211 196.462 29.046 196.226 28.9031C195.991 28.7601 195.799 28.5549 195.673 28.3101C194.712 26.3624 194.298 24.1902 194.475 22.0255C194.652 19.8608 195.413 17.7848 196.678 16.0191C197.942 14.2534 199.662 12.8638 201.654 11.9982C203.645 11.1327 205.835 10.8237 207.988 11.1041C209.078 11.2321 210.143 11.5151 211.153 11.9441C211.39 12.06 211.654 12.1114 211.917 12.0929C212.18 12.0745 212.434 11.9869 212.653 11.8391C212.881 11.6895 213.064 11.4803 213.182 11.2339C213.3 10.9876 213.348 10.7137 213.321 10.4421C213.295 10.1704 213.196 9.9109 213.033 9.69179C212.87 9.47267 212.651 9.30228 212.398 9.19907C209.5 7.95632 206.284 7.65832 203.208 8.34743C200.131 9.03654 197.349 10.6777 195.258 13.0378C193.167 15.3978 191.873 18.3568 191.56 21.4942C191.247 24.6317 191.93 27.7881 193.513 30.5151C193.774 30.9691 194.15 31.3466 194.603 31.6098C195.055 31.8731 195.569 32.0128 196.093 32.0151H216.868C217.397 32.0173 217.916 31.8797 218.375 31.6163C218.833 31.3529 219.214 30.973 219.478 30.5151C220.637 28.5074 221.315 26.2583 221.458 23.9445C221.601 21.6308 221.206 19.3153 220.303 17.1801C220.189 16.9363 220.012 16.7276 219.79 16.5763C219.568 16.4249 219.308 16.3364 219.04 16.3201C218.772 16.3028 218.503 16.3582 218.264 16.4803C218.024 16.6024 217.822 16.7868 217.678 17.0141Z" fill="#FD2D55"/>
<path d="M204.372 20.9C204.086 21.1772 203.859 21.5084 203.702 21.8744C203.546 22.2403 203.464 22.6337 203.461 23.0317C203.458 23.4297 203.534 23.8243 203.685 24.1925C203.836 24.5608 204.059 24.8953 204.34 25.1768C204.622 25.4582 204.956 25.6808 205.324 25.8318C205.693 25.9827 206.087 26.0589 206.485 26.0559C206.883 26.053 207.277 25.9709 207.643 25.8145C208.009 25.6581 208.34 25.4305 208.617 25.145L217.107 12.409L204.372 20.9ZM240.6 10.94L240.13 14.78H244.63L244.29 17.29H239.82L239.11 23H235.83L237.63 8.42997H246.31L245.99 10.94H240.6ZM254.172 17.45L253.462 13.29C253.408 13.03 253.348 12.723 253.282 12.37C253.222 12.01 253.162 11.623 253.102 11.21C252.942 11.63 252.782 12.02 252.622 12.38C252.468 12.733 252.335 13.043 252.222 13.31L250.512 17.45H254.172ZM258.502 23H255.982C255.702 23 255.482 22.937 255.322 22.81C255.166 22.6725 255.054 22.4914 255.002 22.29L254.552 19.67H249.602L248.522 22.29C248.413 22.4866 248.259 22.6546 248.072 22.78C247.872 22.927 247.642 23 247.382 23H244.822L251.782 8.42997H255.122L258.502 23ZM269.436 11.35C269.337 11.4829 269.219 11.6008 269.086 11.7C268.963 11.776 268.82 11.8142 268.676 11.81C268.511 11.8062 268.351 11.754 268.216 11.66C268.063 11.56 267.89 11.45 267.696 11.33C267.49 11.1999 267.272 11.0894 267.046 11C266.8 10.9 266.51 10.85 266.176 10.85C265.87 10.85 265.6 10.893 265.366 10.98C265.153 11.0585 264.959 11.1812 264.796 11.34C264.643 11.4933 264.523 11.6773 264.446 11.88C264.373 12.087 264.336 12.313 264.336 12.56C264.336 12.827 264.41 13.05 264.556 13.23C264.71 13.41 264.91 13.57 265.156 13.71C265.41 13.843 265.693 13.967 266.006 14.08C266.32 14.193 266.64 14.317 266.966 14.45C267.3 14.583 267.623 14.737 267.936 14.91C268.256 15.083 268.54 15.3 268.786 15.56C269.04 15.82 269.24 16.133 269.386 16.5C269.54 16.867 269.616 17.307 269.616 17.82C269.621 18.5278 269.492 19.2301 269.236 19.89C268.991 20.5244 268.62 21.1026 268.146 21.59C267.673 22.07 267.096 22.453 266.416 22.74C265.743 23.02 264.983 23.16 264.136 23.16C263.716 23.16 263.293 23.113 262.866 23.02C262.448 22.9273 262.04 22.7968 261.646 22.63C261.268 22.461 260.906 22.2567 260.566 22.02C260.248 21.8004 259.962 21.5379 259.716 21.24L260.876 19.72C260.97 19.607 261.083 19.513 261.216 19.44C261.356 19.367 261.496 19.33 261.636 19.33C261.823 19.33 262.003 19.397 262.176 19.53C262.356 19.657 262.553 19.8 262.766 19.96C262.98 20.113 263.226 20.257 263.506 20.39C263.793 20.517 264.143 20.58 264.556 20.58C265.163 20.58 265.63 20.417 265.956 20.09C266.29 19.757 266.456 19.267 266.456 18.62C266.456 18.32 266.38 18.073 266.226 17.88C266.067 17.6759 265.866 17.5088 265.636 17.39C265.372 17.2461 265.094 17.1289 264.806 17.04C264.493 16.933 264.173 16.82 263.846 16.7C263.518 16.5791 263.197 16.4388 262.886 16.28C262.573 16.1135 262.29 15.8973 262.046 15.64C261.794 15.3535 261.595 15.0253 261.456 14.67C261.31 14.283 261.236 13.81 261.236 13.25C261.236 12.603 261.356 11.983 261.596 11.39C261.843 10.79 262.193 10.26 262.646 9.79997C263.118 9.32792 263.679 8.95405 264.296 8.69997C264.943 8.42697 265.67 8.28997 266.476 8.28997C267.269 8.28952 268.052 8.4565 268.776 8.77997C269.116 8.93297 269.426 9.11697 269.706 9.32997C269.986 9.53697 270.223 9.76297 270.416 10.01L269.436 11.35ZM283.075 11.01H279.375L277.895 23H274.655L276.115 11.01H272.395L272.715 8.42997H283.415L283.075 11.01ZM235.267 28.584C235.547 28.584 235.781 28.544 235.969 28.464C236.161 28.38 236.315 28.264 236.431 28.116C236.551 27.964 236.637 27.784 236.689 27.576C236.741 27.368 236.767 27.14 236.767 26.892C236.767 26.72 236.743 26.562 236.695 26.418C236.654 26.2796 236.582 26.1524 236.485 26.046C236.384 25.9383 236.258 25.8561 236.119 25.806C235.955 25.7423 235.779 25.7117 235.603 25.716H234.679L234.325 28.584H235.267ZM235.795 24.258C236.315 24.258 236.759 24.322 237.127 24.45C237.499 24.574 237.803 24.748 238.039 24.972C238.279 25.192 238.455 25.454 238.567 25.758C238.679 26.058 238.735 26.382 238.735 26.73C238.735 27.206 238.661 27.648 238.513 28.056C238.374 28.4522 238.146 28.8113 237.847 29.106C237.547 29.402 237.167 29.634 236.707 29.802C236.247 29.97 235.703 30.054 235.075 30.054H234.145L233.779 33H231.835L232.903 24.258H235.795ZM243.778 29.67L243.352 27.174C243.315 26.9903 243.279 26.8062 243.244 26.622C243.206 26.3904 243.17 26.1583 243.136 25.926C243.04 26.178 242.944 26.412 242.848 26.628L242.608 27.186L241.582 29.67H243.778ZM246.376 33H244.864C244.723 33.0081 244.583 32.9679 244.468 32.886C244.374 32.8034 244.308 32.6948 244.276 32.574L244.006 31.002H241.036L240.388 32.574C240.323 32.6921 240.23 32.793 240.118 32.868C239.998 32.9559 239.853 33.0023 239.704 33H238.168L242.344 24.258H244.348L246.376 33ZM251.102 29.646L250.682 33H248.726L249.14 29.67L246.89 24.258H248.63C248.798 24.258 248.928 24.298 249.02 24.378C249.118 24.4573 249.191 24.5637 249.23 24.684L250.07 27.33C250.19 27.674 250.28 27.998 250.34 28.302C250.419 28.1451 250.503 27.991 250.592 27.84L250.886 27.33L252.374 24.684C252.442 24.58 252.532 24.484 252.644 24.396C252.761 24.3021 252.908 24.2532 253.058 24.258H254.678L251.102 29.646ZM262.992 28.068C262.992 28.54 262.936 28.992 262.824 29.424C262.619 30.2538 262.206 31.0178 261.624 31.644C261.341 31.9469 261.018 32.2093 260.664 32.424C260.301 32.639 259.912 32.8064 259.506 32.922C259.078 33.0396 258.636 33.0981 258.192 33.096C257.659 33.1044 257.13 33.0022 256.638 32.796C256.197 32.6028 255.801 32.321 255.474 31.968C255.149 31.6083 254.899 31.1883 254.736 30.732C254.565 30.2381 254.48 29.7186 254.484 29.196C254.484 28.724 254.538 28.272 254.646 27.84C254.752 27.4185 254.91 27.0115 255.114 26.628C255.318 26.256 255.564 25.918 255.852 25.614C256.137 25.3126 256.462 25.0521 256.818 24.84C257.179 24.6217 257.569 24.4541 257.976 24.342C258.405 24.2201 258.85 24.1595 259.296 24.162C259.868 24.162 260.382 24.264 260.838 24.468C261.298 24.668 261.686 24.944 262.002 25.296C262.322 25.648 262.566 26.062 262.734 26.538C262.906 27.014 262.992 27.524 262.992 28.068ZM260.988 28.116C260.988 27.756 260.944 27.43 260.856 27.138C260.783 26.8629 260.654 26.6057 260.478 26.382C260.318 26.1734 260.11 26.0066 259.872 25.896C259.617 25.7767 259.338 25.7171 259.056 25.722C258.656 25.722 258.298 25.806 257.982 25.974C257.662 26.1411 257.385 26.3791 257.172 26.67C256.952 26.97 256.782 27.332 256.662 27.756C256.546 28.176 256.488 28.642 256.488 29.154C256.488 29.514 256.53 29.84 256.614 30.132C256.698 30.424 256.82 30.674 256.98 30.882C257.144 31.09 257.346 31.252 257.586 31.368C257.826 31.48 258.1 31.536 258.408 31.536C258.808 31.536 259.166 31.454 259.482 31.29C259.802 31.126 260.072 30.894 260.292 30.594C260.516 30.294 260.688 29.934 260.808 29.514C260.928 29.094 260.988 28.628 260.988 28.116ZM267.735 31.464C267.979 31.464 268.201 31.418 268.401 31.326C268.605 31.23 268.783 31.096 268.935 30.924C269.095 30.735 269.221 30.5198 269.307 30.288C269.407 30.04 269.475 29.762 269.511 29.454L270.147 24.258H272.103L271.467 29.454C271.405 29.9638 271.262 30.4602 271.041 30.924C270.637 31.7947 269.913 32.4761 269.019 32.826C268.567 33.006 268.071 33.096 267.531 33.096C266.991 33.096 266.517 33.006 266.109 32.826C265.719 32.659 265.373 32.402 265.101 32.076C264.834 31.7375 264.646 31.3441 264.549 30.924C264.444 30.4411 264.425 29.9433 264.495 29.454L265.119 24.258H267.075L266.439 29.454C266.403 29.7309 266.405 30.0116 266.445 30.288C266.485 30.536 266.559 30.748 266.667 30.924C266.779 31.096 266.923 31.23 267.099 31.326C267.279 31.418 267.491 31.464 267.735 31.464ZM279.816 25.806H277.596L276.708 33H274.764L275.64 25.806H273.408L273.6 24.258H280.02L279.816 25.806ZM285.922 26.01C285.862 26.0897 285.792 26.1604 285.712 26.22C285.638 26.2656 285.553 26.2885 285.466 26.286C285.367 26.2838 285.271 26.2525 285.19 26.196C285.098 26.136 284.994 26.07 284.878 25.998C284.754 25.92 284.624 25.8538 284.488 25.8C284.321 25.7366 284.144 25.7061 283.966 25.71C283.782 25.71 283.62 25.736 283.48 25.788C283.355 25.8329 283.24 25.9044 283.145 25.9976C283.05 26.0908 282.976 26.2035 282.928 26.328C282.884 26.452 282.862 26.588 282.862 26.736C282.862 26.896 282.906 27.03 282.994 27.138C283.086 27.246 283.206 27.342 283.354 27.426C283.506 27.506 283.676 27.58 283.864 27.648C284.052 27.716 284.244 27.79 284.44 27.87C284.64 27.95 284.834 28.042 285.022 28.146C285.214 28.25 285.384 28.38 285.532 28.536C285.684 28.692 285.804 28.88 285.892 29.1C285.984 29.32 286.03 29.584 286.03 29.892C286.03 30.332 285.954 30.746 285.802 31.134C285.65 31.522 285.432 31.862 285.148 32.154C284.864 32.442 284.518 32.672 284.11 32.844C283.706 33.012 283.25 33.096 282.742 33.096C282.49 33.096 282.236 33.068 281.98 33.012C281.729 32.9564 281.484 32.8781 281.248 32.778C281.021 32.6767 280.804 32.5542 280.6 32.412C280.409 32.2804 280.237 32.1229 280.09 31.944L280.786 31.032C280.843 30.9634 280.912 30.9064 280.99 30.864C281.067 30.8217 281.154 30.799 281.242 30.798C281.354 30.798 281.462 30.838 281.566 30.918C281.674 30.994 281.792 31.08 281.92 31.176C282.048 31.268 282.196 31.354 282.364 31.434C282.536 31.51 282.746 31.548 282.994 31.548C283.358 31.548 283.638 31.45 283.834 31.254C284.034 31.054 284.134 30.76 284.134 30.372C284.14 30.2125 284.092 30.0557 283.996 29.928C283.9 29.8057 283.78 29.7054 283.642 29.634C283.498 29.554 283.332 29.484 283.144 29.424C282.956 29.36 282.764 29.292 282.568 29.22C282.371 29.1476 282.179 29.0634 281.992 28.968C281.804 28.8682 281.634 28.7385 281.488 28.584C281.337 28.4122 281.217 28.2152 281.134 28.002C281.039 27.7282 280.995 27.4396 281.002 27.15C281.001 26.5636 281.175 25.9903 281.502 25.5038C281.829 25.0172 282.294 24.6398 282.838 24.42C283.253 24.2508 283.698 24.1671 284.146 24.174C284.622 24.1732 285.092 24.2734 285.526 24.468C285.73 24.56 285.916 24.67 286.084 24.798C286.252 24.922 286.394 25.058 286.51 25.206L285.922 26.01ZM363.774 13.51C363.774 10.918 366.032 8.80997 368.809 8.80997C371.584 8.80997 373.843 10.918 373.843 13.51V16.043H376.808V13.51C376.808 9.39197 373.219 6.04297 368.809 6.04297C364.396 6.04297 360.808 9.39197 360.808 13.51V16.043H363.774V13.51ZM378.341 16.957H359.275C358.469 16.957 357.808 17.594 357.808 18.373V32.54C357.808 33.32 358.469 33.957 359.275 33.957H378.341C379.148 33.957 379.808 33.319 379.808 32.54V18.373C379.808 17.593 379.148 16.957 378.341 16.957ZM363.212 30.372H362.942C362.336 30.372 361.843 29.895 361.843 29.309C361.843 28.723 362.336 28.247 362.942 28.247H363.212C363.819 28.247 364.312 28.723 364.312 29.309C364.312 29.895 363.818 30.372 363.212 30.372ZM363.212 26.52H362.942C362.336 26.52 361.843 26.044 361.843 25.456C361.843 24.87 362.336 24.395 362.942 24.395H363.212C363.819 24.395 364.312 24.87 364.312 25.456C364.312 26.044 363.818 26.52 363.212 26.52ZM363.212 22.668H362.942C362.336 22.668 361.843 22.192 361.843 21.605C361.843 21.018 362.336 20.542 362.942 20.542H363.212C363.819 20.542 364.312 21.018 364.312 21.605C364.312 22.192 363.818 22.668 363.212 22.668ZM374.674 30.372H366.839C366.231 30.372 365.739 29.895 365.739 29.309C365.739 28.723 366.231 28.247 366.839 28.247H374.674C375.281 28.247 375.775 28.723 375.775 29.309C375.775 29.895 375.281 30.372 374.674 30.372ZM374.674 26.52H366.839C366.231 26.52 365.739 26.044 365.739 25.456C365.739 24.87 366.231 24.395 366.839 24.395H374.674C375.281 24.395 375.775 24.87 375.775 25.456C375.775 26.044 375.281 26.52 374.674 26.52ZM374.674 22.668H366.839C366.231 22.668 365.739 22.192 365.739 21.605C365.739 21.018 366.231 20.542 366.839 20.542H374.674C375.281 20.542 375.775 21.018 375.775 21.605C375.775 22.192 375.281 22.668 374.674 22.668ZM399.852 20.84L399.572 23H391.872L392.152 20.84H394.682L395.602 13.26C395.622 13.087 395.646 12.913 395.672 12.74L395.772 12.2L394.172 13.59C394.038 13.6883 393.885 13.7565 393.722 13.79C393.582 13.817 393.452 13.82 393.332 13.8C393.225 13.7758 393.123 13.7317 393.032 13.67C392.956 13.6206 392.891 13.5559 392.842 13.48L392.062 12.23L396.732 8.42997H399.202L397.682 20.84H399.852ZM413.774 14.13C413.774 15.657 413.614 16.987 413.294 18.12C412.98 19.247 412.55 20.183 412.004 20.93C411.457 21.677 410.817 22.237 410.084 22.61C409.355 22.9756 408.55 23.164 407.734 23.16C407.114 23.16 406.547 23.04 406.034 22.8C405.511 22.546 405.058 22.1684 404.714 21.7C404.347 21.213 404.06 20.607 403.854 19.88C403.654 19.147 403.554 18.293 403.554 17.32C403.554 15.8 403.71 14.473 404.024 13.34C404.337 12.207 404.764 11.267 405.304 10.52C405.844 9.76697 406.477 9.20697 407.204 8.83997C407.935 8.46727 408.744 8.27523 409.564 8.27997C410.184 8.27997 410.75 8.40297 411.264 8.64997C411.784 8.88997 412.227 9.25297 412.594 9.73997C412.967 10.227 413.257 10.837 413.464 11.57C413.67 12.297 413.774 13.15 413.774 14.13ZM410.714 13.97C410.714 13.33 410.67 12.8 410.584 12.38C410.504 11.953 410.397 11.617 410.264 11.37C410.13 11.117 409.974 10.94 409.794 10.84C409.633 10.737 409.445 10.6816 409.254 10.68C408.934 10.68 408.614 10.787 408.294 11C407.98 11.213 407.697 11.58 407.444 12.1C407.197 12.62 406.997 13.32 406.844 14.2C406.69 15.073 406.614 16.173 406.614 17.5C406.614 18.133 406.654 18.66 406.734 19.08C406.814 19.5 406.917 19.837 407.044 20.09C407.177 20.337 407.327 20.51 407.494 20.61C407.667 20.71 407.847 20.76 408.034 20.76C408.247 20.76 408.46 20.717 408.674 20.63C408.908 20.5218 409.119 20.3689 409.294 20.18C409.494 19.973 409.68 19.7 409.854 19.36C410.027 19.02 410.177 18.6 410.304 18.1C410.43 17.593 410.53 17 410.604 16.32C410.677 15.64 410.714 14.857 410.714 13.97ZM426.375 14.13C426.375 15.657 426.215 16.987 425.895 18.12C425.582 19.247 425.152 20.183 424.605 20.93C424.059 21.677 423.419 22.237 422.685 22.61C421.956 22.9758 421.151 23.1642 420.335 23.16C419.715 23.16 419.149 23.04 418.635 22.8C418.113 22.5455 417.66 22.168 417.315 21.7C416.949 21.213 416.662 20.607 416.455 19.88C416.255 19.147 416.155 18.293 416.155 17.32C416.155 15.8 416.312 14.473 416.625 13.34C416.939 12.207 417.365 11.267 417.905 10.52C418.445 9.76697 419.079 9.20697 419.805 8.83997C420.536 8.46734 421.345 8.2753 422.165 8.27997C422.785 8.27997 423.352 8.40297 423.865 8.64997C424.385 8.88997 424.829 9.25297 425.195 9.73997C425.569 10.227 425.859 10.837 426.065 11.57C426.272 12.297 426.375 13.15 426.375 14.13ZM423.315 13.97C423.315 13.33 423.272 12.8 423.185 12.38C423.105 11.953 422.999 11.617 422.865 11.37C422.732 11.117 422.575 10.94 422.395 10.84C422.234 10.7367 422.046 10.6812 421.855 10.68C421.535 10.68 421.215 10.787 420.895 11C420.582 11.213 420.299 11.58 420.045 12.1C419.799 12.62 419.599 13.32 419.445 14.2C419.292 15.073 419.215 16.173 419.215 17.5C419.215 18.133 419.255 18.66 419.335 19.08C419.415 19.5 419.519 19.837 419.645 20.09C419.779 20.337 419.929 20.51 420.095 20.61C420.269 20.71 420.449 20.76 420.635 20.76C420.849 20.76 421.062 20.717 421.275 20.63C421.509 20.522 421.72 20.3691 421.895 20.18C422.095 19.973 422.282 19.7 422.455 19.36C422.629 19.02 422.779 18.6 422.905 18.1C423.032 17.593 423.132 17 423.205 16.32C423.279 15.64 423.315 14.857 423.315 13.97ZM435.717 11.45C435.725 12.03 435.613 12.6055 435.387 13.14C435.174 13.647 434.89 14.08 434.537 14.44C434.198 14.7943 433.794 15.0795 433.347 15.28C432.9 15.473 432.444 15.57 431.977 15.57C431.55 15.57 431.164 15.497 430.817 15.35C430.478 15.2023 430.175 14.9841 429.927 14.71C429.673 14.4249 429.479 14.0916 429.357 13.73C429.224 13.35 429.157 12.93 429.157 12.47C429.157 11.85 429.254 11.287 429.447 10.78C429.624 10.2938 429.892 9.84575 430.237 9.45997C430.57 9.09297 430.964 8.80997 431.417 8.60997C431.87 8.40997 432.357 8.30997 432.877 8.30997C433.304 8.30997 433.69 8.38697 434.037 8.53997C434.39 8.68697 434.69 8.89997 434.937 9.17997C435.19 9.45297 435.384 9.78297 435.517 10.17C435.65 10.557 435.717 10.983 435.717 11.45ZM433.417 11.47C433.417 10.99 433.344 10.653 433.197 10.46C433.137 10.3664 433.054 10.2897 432.956 10.2371C432.858 10.1846 432.748 10.1581 432.637 10.16C432.458 10.1575 432.282 10.2061 432.13 10.2999C431.978 10.3938 431.855 10.5291 431.777 10.69C431.677 10.87 431.597 11.107 431.537 11.4C431.484 11.693 431.457 12.05 431.457 12.47C431.457 12.93 431.524 13.25 431.657 13.43C431.797 13.61 431.984 13.7 432.217 13.7C432.39 13.7 432.55 13.663 432.697 13.59C432.856 13.5049 432.988 13.3766 433.077 13.22C433.199 13.0059 433.284 12.7725 433.327 12.53C433.387 12.243 433.417 11.89 433.417 11.47ZM440.217 8.88997C440.337 8.77758 440.468 8.67711 440.607 8.58997C440.76 8.49697 440.964 8.44997 441.217 8.44997H443.397L431.497 22.58C431.378 22.6976 431.243 22.7985 431.097 22.88C430.95 22.96 430.77 23 430.557 23H428.337L440.217 8.88997ZM442.537 19.06C442.545 19.64 442.433 20.2155 442.207 20.75C441.994 21.257 441.71 21.69 441.357 22.05C441.018 22.4043 440.614 22.6895 440.167 22.89C439.72 23.083 439.264 23.18 438.797 23.18C438.37 23.18 437.984 23.107 437.637 22.96C437.298 22.8123 436.995 22.5941 436.747 22.32C436.493 22.0349 436.299 21.7016 436.177 21.34C436.044 20.96 435.977 20.543 435.977 20.09C435.977 19.463 436.074 18.893 436.267 18.38C436.444 17.8937 436.712 17.4457 437.057 17.06C437.386 16.6965 437.788 16.4068 438.237 16.21C438.69 16.01 439.177 15.91 439.697 15.91C440.124 15.91 440.51 15.987 440.857 16.14C441.21 16.293 441.51 16.507 441.757 16.78C442.01 17.053 442.204 17.387 442.337 17.78C442.47 18.167 442.537 18.593 442.537 19.06ZM440.237 19.08C440.237 18.593 440.164 18.257 440.017 18.07C439.954 17.981 439.87 17.9089 439.772 17.8601C439.674 17.8112 439.566 17.7872 439.457 17.79C439.277 17.79 439.114 17.83 438.967 17.91C438.807 18.0039 438.678 18.1431 438.597 18.31C438.497 18.49 438.417 18.727 438.357 19.02C438.304 19.313 438.277 19.67 438.277 20.09C438.277 20.543 438.344 20.863 438.477 21.05C438.617 21.23 438.804 21.32 439.037 21.32C439.21 21.32 439.37 21.283 439.517 21.21C439.676 21.1249 439.808 20.9966 439.897 20.84C440.004 20.66 440.087 20.427 440.147 20.14C440.207 19.853 440.237 19.5 440.237 19.08ZM399.979 26.01C399.919 26.0897 399.849 26.1604 399.769 26.22C399.695 26.2656 399.61 26.2885 399.523 26.286C399.424 26.2838 399.328 26.2525 399.247 26.196C399.155 26.136 399.051 26.07 398.935 25.998C398.811 25.92 398.681 25.8538 398.545 25.8C398.378 25.7366 398.201 25.7061 398.023 25.71C397.839 25.71 397.677 25.736 397.537 25.788C397.411 25.8329 397.297 25.9044 397.202 25.9976C397.107 26.0908 397.033 26.2035 396.985 26.328C396.941 26.452 396.919 26.588 396.919 26.736C396.919 26.896 396.963 27.03 397.051 27.138C397.143 27.246 397.263 27.342 397.411 27.426C397.563 27.506 397.733 27.58 397.921 27.648C398.109 27.716 398.301 27.79 398.497 27.87C398.697 27.95 398.891 28.042 399.079 28.146C399.271 28.25 399.441 28.38 399.589 28.536C399.741 28.692 399.861 28.88 399.949 29.1C400.041 29.32 400.087 29.584 400.087 29.892C400.087 30.332 400.011 30.746 399.859 31.134C399.707 31.522 399.489 31.862 399.205 32.154C398.921 32.442 398.575 32.672 398.167 32.844C397.763 33.012 397.307 33.096 396.799 33.096C396.547 33.096 396.293 33.068 396.037 33.012C395.786 32.9564 395.541 32.8781 395.305 32.778C395.078 32.6767 394.861 32.5542 394.657 32.412C394.466 32.2804 394.294 32.1229 394.147 31.944L394.843 31.032C394.9 30.9634 394.969 30.9064 395.047 30.864C395.124 30.8217 395.211 30.799 395.299 30.798C395.411 30.798 395.519 30.838 395.623 30.918C395.731 30.994 395.849 31.08 395.977 31.176C396.105 31.268 396.253 31.354 396.421 31.434C396.593 31.51 396.803 31.548 397.051 31.548C397.415 31.548 397.695 31.45 397.891 31.254C398.091 31.054 398.191 30.76 398.191 30.372C398.197 30.2125 398.149 30.0557 398.053 29.928C397.957 29.8057 397.837 29.7054 397.699 29.634C397.555 29.554 397.389 29.484 397.201 29.424C397.013 29.36 396.821 29.292 396.625 29.22C396.428 29.1476 396.236 29.0634 396.049 28.968C395.861 28.8682 395.691 28.7385 395.545 28.584C395.394 28.4122 395.274 28.2152 395.191 28.002C395.096 27.7282 395.051 27.4396 395.059 27.15C395.058 26.5636 395.232 25.9903 395.559 25.5038C395.886 25.0172 396.351 24.6398 396.895 24.42C397.31 24.2508 397.755 24.1671 398.203 24.174C398.679 24.1732 399.149 24.2734 399.583 24.468C399.787 24.56 399.973 24.67 400.141 24.798C400.309 24.922 400.451 25.058 400.567 25.206L399.979 26.01ZM404.34 25.764L404.082 27.876H406.554L406.362 29.328H403.902L403.632 31.494H406.89L406.698 33H401.478L402.558 24.258H407.766L407.574 25.764H404.34ZM412.141 31.488C412.361 31.488 412.551 31.472 412.711 31.44C412.875 31.404 413.015 31.36 413.131 31.308C413.235 31.2629 413.333 31.2066 413.425 31.14L413.641 30.966C413.705 30.914 413.765 30.872 413.821 30.84C413.874 30.8047 413.937 30.786 414.001 30.786C414.055 30.7836 414.109 30.7961 414.157 30.822C414.201 30.842 414.233 30.866 414.253 30.894L414.937 31.716C414.557 32.168 414.105 32.512 413.581 32.748C413.061 32.98 412.469 33.096 411.805 33.096C411.253 33.096 410.763 33 410.335 32.808C409.923 32.6209 409.556 32.3466 409.261 32.004C408.961 31.6501 408.735 31.2401 408.595 30.798C408.444 30.3084 408.369 29.7984 408.373 29.286C408.373 28.786 408.429 28.312 408.541 27.864C408.653 27.416 408.811 27.002 409.015 26.622C409.404 25.8804 409.986 25.2583 410.701 24.822C411.051 24.6092 411.428 24.4456 411.823 24.336C412.522 24.136 413.259 24.1093 413.971 24.258C414.243 24.318 414.487 24.404 414.703 24.516C414.923 24.624 415.119 24.754 415.291 24.906C415.463 25.058 415.613 25.226 415.741 25.41L415.057 26.202C415.008 26.2591 414.951 26.3095 414.889 26.352C414.814 26.3991 414.726 26.4221 414.637 26.418C414.572 26.4187 414.508 26.4022 414.451 26.37C414.391 26.3353 414.333 26.2972 414.277 26.256C414.221 26.208 414.157 26.156 414.085 26.1C413.899 25.9701 413.689 25.8784 413.467 25.83C413.307 25.7955 413.144 25.7794 412.981 25.782C412.613 25.782 412.269 25.86 411.949 26.016C411.633 26.172 411.357 26.396 411.121 26.688C410.889 26.976 410.707 27.328 410.575 27.744C410.438 28.1929 410.371 28.6605 410.377 29.13C410.377 29.502 410.421 29.834 410.509 30.126C410.589 30.3937 410.715 30.6455 410.881 30.87C411.037 31.07 411.223 31.224 411.439 31.332C411.655 31.436 411.889 31.488 412.141 31.488ZM419.913 31.464C420.157 31.464 420.379 31.418 420.579 31.326C420.783 31.23 420.961 31.096 421.113 30.924C421.273 30.735 421.398 30.5198 421.485 30.288C421.585 30.04 421.653 29.762 421.689 29.454L422.325 24.258H424.281L423.645 29.454C423.583 29.9638 423.44 30.4602 423.219 30.924C422.815 31.7947 422.091 32.4761 421.197 32.826C420.745 33.006 420.249 33.096 419.709 33.096C419.169 33.096 418.695 33.006 418.287 32.826C417.896 32.659 417.551 32.402 417.279 32.076C417.012 31.7375 416.823 31.3441 416.727 30.924C416.622 30.4411 416.603 29.9433 416.673 29.454L417.297 24.258H419.253L418.617 29.454C418.581 29.7309 418.583 30.0116 418.623 30.288C418.663 30.536 418.737 30.748 418.845 30.924C418.957 31.096 419.101 31.23 419.277 31.326C419.457 31.418 419.669 31.464 419.913 31.464ZM428.538 28.386C428.818 28.386 429.056 28.344 429.252 28.26C429.431 28.1828 429.591 28.0661 429.719 27.9185C429.846 27.771 429.939 27.5965 429.99 27.408C430.046 27.216 430.074 27.014 430.074 26.802C430.074 26.638 430.05 26.49 430.002 26.358C429.957 26.2262 429.878 26.1083 429.774 26.016C429.674 25.92 429.546 25.846 429.39 25.794C429.215 25.7386 429.033 25.7122 428.85 25.716H428.154L427.824 28.386H428.538ZM429.03 24.258C429.566 24.258 430.022 24.316 430.398 24.432C430.778 24.544 431.088 24.7 431.328 24.9C431.568 25.1 431.742 25.338 431.85 25.614C431.962 25.886 432.018 26.182 432.018 26.502C432.018 26.822 431.974 27.128 431.886 27.42C431.804 27.7036 431.679 27.9728 431.514 28.218C431.169 28.7215 430.677 29.1053 430.104 29.316C430.224 29.384 430.334 29.468 430.434 29.568C430.534 29.664 430.618 29.782 430.686 29.922L431.958 33H430.194C430.05 33.0048 429.907 32.9717 429.78 32.904C429.675 32.8391 429.593 32.7425 429.546 32.628L428.598 30.042C428.561 29.9485 428.499 29.8673 428.418 29.808C428.346 29.76 428.238 29.736 428.094 29.736H427.656L427.254 33H425.31L426.378 24.258H429.03ZM436.143 25.764L435.885 27.876H438.357L438.165 29.328H435.705L435.435 31.494H438.693L438.501 33H433.281L434.361 24.258H439.569L439.377 25.764H436.143Z" fill="#FD2D55"/>
</svg>
